<svg xmlns="http://www.w3.org/2000/svg" width="18" height="16" viewBox="0 0 18 16">
    <g fill="none" fill-rule="evenodd">
        <path fill="#E63B4F" fill-rule="nonzero" d="M5.653 3.618h10.71v6.964l-3.452.938a1.2 1.2 0 0 0-.787-.7l-4.01-1.088a2.673 2.673 0 0 0-.69-.09H5.652V3.617z"/>
        <path fill="#FBFBFF" fill-rule="nonzero" d="M16.935 12.299l-6.44 1.747a3.274 3.274 0 0 1-.85.113H4.76a3.224 3.224 0 0 1-1.963-.663l-.12-.09v-2.41l.12-.09a3.222 3.222 0 0 1 1.963-.662h2.663c.182 0 .363.024.539.07l4.008 1.088c.236.066.41.272.437.519a.297.297 0 0 0 .012.036.3.3 0 0 0-.008.04.596.596 0 0 1-.748.57l-2.53-.686a.295.295 0 0 0-.293.073.304.304 0 0 0-.078.296.3.3 0 0 0 .218.212l2.528.687a1.19 1.19 0 0 0 1.488-1.03l3.628-.984a.595.595 0 0 1 .751.581c0 .273-.18.512-.44.583z"/>
        <path fill="#323233" fill-rule="nonzero" d="M4.76.606h12.496v2.41H4.76z"/>
        <path fill="#02BAEF" fill-rule="nonzero" d="M2.083 15.364H.595V9.039h1.488z"/>
        <path fill="#323233" fill-rule="nonzero" d="M17.93 11.403a1.196 1.196 0 0 0-.971-.873V3.618h.595a.3.3 0 0 0 .297-.301V.305a.3.3 0 0 0-.297-.301H4.463a.3.3 0 0 0-.298.301v3.012a.3.3 0 0 0 .298.3h.595v6.024H4.76a3.798 3.798 0 0 0-2.082.618V8.738a.3.3 0 0 0-.298-.301H.298a.3.3 0 0 0-.298.3v6.928a.3.3 0 0 0 .298.301H2.38a.3.3 0 0 0 .298-.301v-1.52a3.801 3.801 0 0 0 2.082.616h4.886c.338 0 .675-.045 1.002-.133l6.442-1.747a1.211 1.211 0 0 0 .84-1.478zM4.76.606h12.496v2.41H4.76V.606zm.893 3.012h10.71v6.964l-3.452.938a1.2 1.2 0 0 0-.787-.7l-4.01-1.088a2.673 2.673 0 0 0-.69-.09H5.652V3.617zm-3.57 11.746H.595V9.039h1.488v6.325zm14.852-3.065l-6.44 1.747a3.274 3.274 0 0 1-.85.113H4.76a3.224 3.224 0 0 1-1.963-.663l-.12-.09v-2.41l.12-.09a3.222 3.222 0 0 1 1.963-.662h2.663c.182 0 .363.024.539.07l4.008 1.088c.236.066.41.272.437.519a.297.297 0 0 0 .012.036.3.3 0 0 0-.008.04.596.596 0 0 1-.748.57l-2.53-.686a.295.295 0 0 0-.293.073.304.304 0 0 0-.078.296.3.3 0 0 0 .218.212l2.528.687a1.19 1.19 0 0 0 1.488-1.03l3.628-.984a.595.595 0 0 1 .751.581c0 .273-.18.512-.44.583z"/>
        <path fill="#323233" d="M9.52 4.823h2.976a.3.3 0 0 0 .297-.302.3.3 0 0 0-.297-.3H9.52a.3.3 0 0 0-.298.3.3.3 0 0 0 .298.302z"/>
    </g>
</svg>
