<svg xmlns="http://www.w3.org/2000/svg" xmlns:xlink="http://www.w3.org/1999/xlink" width="32" height="37" viewBox="0 0 32 37">
    <defs>
        <path id="b" d="M16.944 22.938l-4.125 5.892a1 1 0 0 1-1.638 0l-4.125-5.892C2.895 21.054 0 16.865 0 12 0 5.373 5.373 0 12 0s12 5.373 12 12c0 4.865-2.895 9.054-7.056 10.938z"/>
        <filter id="a" width="158.3%" height="147.9%" x="-29.2%" y="-17.1%" filterUnits="objectBoundingBox">
            <feOffset dy="2" in="SourceAlpha" result="shadowOffsetOuter1"/>
            <feGaussianBlur in="shadowOffsetOuter1" result="shadowBlurOuter1" stdDeviation="2"/>
            <feColorMatrix in="shadowBlurOuter1" values="0 0 0 0 0 0 0 0 0 0 0 0 0 0 0 0 0 0 0.15510271 0"/>
        </filter>
    </defs>
    <g fill="none" fill-rule="evenodd" transform="translate(4 2)">
        <ellipse cx="12" cy="29" fill="#000" fill-opacity=".133" rx="4" ry="1"/>
        <use fill="#000" filter="url(#a)" xlink:href="#b"/>
        <use fill="#FBFBFF" xlink:href="#b"/>
        <path fill="#FBFBFF" d="M5 20h14l-6.18 8.83a1 1 0 0 1-1.64 0L5 20z"/>
        <circle cx="12" cy="12" r="12" fill="#E63B4F" stroke="#FBFBFF"/>
        <g fill-rule="nonzero">
            <path fill="#C9273A" d="M23.98 11.99c0 6.622-5.368 11.99-11.99 11.99S0 18.612 0 11.99 5.368 0 11.99 0s11.99 5.368 11.99 11.99z"/>
            <path fill="#E63B4F" d="M22.363 11.99c0 5.729-4.644 10.373-10.373 10.373-5.729 0-10.373-4.644-10.373-10.373 0-5.729 4.644-10.373 10.373-10.373 5.729 0 10.373 4.644 10.373 10.373z"/>
            <path fill="#C9273A" d="M16.84 8.532h-3.134v-.935a.2.2 0 0 0-.2-.201h-4.8v-.757a.581.581 0 0 0-.291-.504.569.569 0 0 0-.25-.076h-.019l-.022-.002a.592.592 0 0 0-.062.003H8.06l-.004.001a.581.581 0 0 0-.514.578v12.49c0 .11.09.2.201.2h.762a.2.2 0 0 0 .2-.2v-5.065h3.334V15.2h4.8a.2.2 0 0 0 .201-.2V8.732a.2.2 0 0 0-.2-.2z"/>
            <path fill="#E6B93B" d="M8.505 18.626h-.762a.2.2 0 0 1-.2-.201V5.935a.581.581 0 1 1 1.163 0v12.49c0 .111-.09.2-.201.2z"/>
            <path fill="#000" fill-opacity=".16" d="M8.415 5.432a.58.58 0 0 0-.355-.075c-.3.033-.518.3-.518.602v12.466c0 .111.09.201.201.201h.38V5.936a.58.58 0 0 1 .292-.504z"/>
            <path fill="#4B4B4D" d="M16.84 14.497h-4.8V7.83h4.8a.2.2 0 0 1 .2.201v6.266a.2.2 0 0 1-.2.201z"/>
            <path fill="#D1D3D4" d="M12.04 7.83h1.666v1.666H12.04zM12.04 11.163h1.666v1.667H12.04z"/>
            <path fill="#EBEBF0" d="M13.706 9.496h1.667v1.667h-1.667zM17.04 9.496h-1.667V7.83h1.466a.2.2 0 0 1 .201.201v1.466zM13.706 12.83h1.667v1.667h-1.667zM15.373 11.163h1.667v1.667h-1.667z"/>
            <path fill="#000" fill-opacity=".097" d="M13.706 12.83h.569v-1.667h-.569V9.496h.569V7.83h-2.236v6.668h.62l1.047-.737z"/>
            <path fill="#232323" d="M13.706 13.36l-1.667 1.137v-1.136z"/>
            <path fill="#000" fill-opacity=".097" d="M14.275 13.36v-.53h-.569v.93zM13.706 9.496h.569v1.667h-.569z"/>
            <path fill="#757575" d="M13.706 13.36h-5V6.694h4.8c.11 0 .2.09.2.2v6.468z"/>
            <g fill="#FBFBFF">
                <path d="M8.705 6.693h1.668V8.36H8.705zM8.705 10.027h1.668v1.667H8.705zM10.373 8.36h1.666v1.667h-1.666zM13.706 8.36H12.04V6.693h1.466c.111 0 .201.09.201.2V8.36zM10.373 11.694h1.666v1.667h-1.666zM12.04 10.027h1.666v1.667H12.04z"/>
            </g>
        </g>
    </g>
</svg>
