<svg xmlns="http://www.w3.org/2000/svg" width="26" height="18" viewBox="0 0 26 18">
    <g fill="none" fill-rule="evenodd">
        <path fill="#CCD1D9" d="M8.938 14.478c.45 0 .812.353.812.783 0 .434-.362.782-.813.782-.446 0-.812-.348-.812-.782 0-.43.366-.783.813-.783z"/>
        <path fill="#656D78" fill-rule="nonzero" d="M8.938 12.913c1.348 0 2.437 1.053 2.437 2.348s-1.089 2.348-2.438 2.348c-1.344 0-2.437-1.053-2.437-2.348s1.093-2.348 2.438-2.348zm.812 2.348c0-.43-.362-.783-.813-.783-.446 0-.812.353-.812.783 0 .434.366.782.813.782.45 0 .812-.348.812-.782z"/>
        <path fill="#CCD1D9" d="M21.125 14.478c.45 0 .813.353.813.783 0 .434-.362.782-.813.782-.447 0-.813-.348-.813-.782 0-.43.366-.783.813-.783z"/>
        <path fill="#656D78" fill-rule="nonzero" d="M21.125 12.913c1.349 0 2.438 1.053 2.438 2.348s-1.09 2.348-2.438 2.348c-1.345 0-2.438-1.053-2.438-2.348s1.093-2.348 2.438-2.348zm.813 2.348c0-.43-.362-.783-.813-.783-.447 0-.813.353-.813.783 0 .434.366.782.813.782.45 0 .813-.348.813-.782z"/>
        <path fill="#02BAEF" d="M19.5 6.26l.406 3.131h-1.625l-.406-3.13z"/>
        <path fill="#02BAEF" d="M21.564 6.26l1.998 3.131h-3.656l-.406-3.13z"/>
        <path fill="#FBFBFF" fill-rule="nonzero" d="M16.23 5.087h6.114l3.25 5.087v5.087h-2.032c0-1.295-1.088-2.348-2.437-2.348-1.345 0-2.438 1.053-2.438 2.348h-7.312c0-1.295-1.089-2.348-2.438-2.348-1.344 0-2.437 1.053-2.437 2.348H4.469l-.321-3.913h12.594l-.512-6.261zm1.645 1.174l.406 3.13h5.282l-2-3.13h-3.688z"/>
        <path fill="#E63B4F" d="M3.99 9.391l-.196-2.348-.19-2.347-.195-2.348L3.25.39h12.594l.386 4.696.512 6.26H4.148z"/>
        <path fill="#323233" d="M25.594 13.304a.399.399 0 0 1-.407-.391v-2.74c0-.215.182-.39.407-.39.224 0 .406.175.406.39v2.74a.399.399 0 0 1-.406.391z"/>
        <path fill="#323233" d="M25.594 10.565a.41.41 0 0 1-.346-.186l-3.25-5.087a.383.383 0 0 1 .133-.538.415.415 0 0 1 .558.128l3.25 5.087a.383.383 0 0 1-.132.538.414.414 0 0 1-.213.058zM23.563 9.783a.41.41 0 0 1-.347-.186l-2-3.132a.383.383 0 0 1 .133-.538.415.415 0 0 1 .559.128l2 3.13a.383.383 0 0 1-.133.54.414.414 0 0 1-.212.058z"/>
        <path fill="#323233" d="M22.344 5.478h-6.116a.399.399 0 0 1-.406-.391c0-.216.182-.391.406-.391h6.116c.224 0 .406.175.406.391a.399.399 0 0 1-.406.391zM16.742 11.74H4.148a.399.399 0 0 1-.406-.392c0-.216.182-.391.406-.391h12.594c.224 0 .406.176.406.392a.399.399 0 0 1-.406.391z"/>
        <path fill="#323233" d="M4.468 15.652a.4.4 0 0 1-.404-.36L2.844.422a.397.397 0 0 1 .374-.42c.23-.018.42.143.437.359l1.219 14.87a.397.397 0 0 1-.406.421zM16.741 11.74a.4.4 0 0 1-.405-.36L15.44.422a.397.397 0 0 1 .373-.42c.229-.018.419.143.437.359l.898 10.957a.397.397 0 0 1-.406.422z"/>
        <path fill="#323233" d="M15.756.783H3.25A.399.399 0 0 1 2.844.39c0-.216.181-.391.406-.391h12.506c.224 0 .406.175.406.391a.399.399 0 0 1-.406.392zM18.281 15.652h-6.5a.399.399 0 0 1-.406-.391c0-.216.182-.391.406-.391h6.5c.225 0 .407.175.407.39a.399.399 0 0 1-.407.392zM25.594 15.652a.399.399 0 0 1-.407-.391v-2.348c0-.216.182-.391.407-.391.224 0 .406.175.406.391v2.348a.399.399 0 0 1-.406.391z"/>
        <path fill="#323233" fill-rule="nonzero" d="M21.125 16.435c-.672 0-1.219-.527-1.219-1.174 0-.647.547-1.174 1.219-1.174s1.219.527 1.219 1.174c0 .647-.547 1.174-1.219 1.174zm0-1.565a.4.4 0 0 0-.406.39.4.4 0 0 0 .406.392.4.4 0 0 0 .406-.391.4.4 0 0 0-.406-.391z"/>
        <path fill="#323233" fill-rule="nonzero" d="M21.125 18c-1.568 0-2.844-1.229-2.844-2.74 0-1.51 1.276-2.738 2.844-2.738 1.568 0 2.844 1.229 2.844 2.739 0 1.51-1.276 2.739-2.844 2.739zm0-4.696c-1.12 0-2.031.878-2.031 1.957 0 1.079.911 1.956 2.031 1.956s2.031-.877 2.031-1.956-.911-1.957-2.031-1.957zM8.938 16.435c-.672 0-1.22-.527-1.22-1.174 0-.647.548-1.174 1.22-1.174.671 0 1.218.527 1.218 1.174 0 .647-.547 1.174-1.219 1.174zm0-1.565a.4.4 0 0 0-.407.39.4.4 0 0 0 .406.392.4.4 0 0 0 .407-.391.4.4 0 0 0-.406-.391z"/>
        <path fill="#323233" fill-rule="nonzero" d="M8.938 18c-1.568 0-2.844-1.229-2.844-2.74 0-1.51 1.276-2.738 2.843-2.738 1.568 0 2.844 1.229 2.844 2.739 0 1.51-1.276 2.739-2.844 2.739zm0-4.696c-1.12 0-2.032.878-2.032 1.957 0 1.079.912 1.956 2.032 1.956s2.03-.877 2.03-1.956-.91-1.957-2.03-1.957z"/>
        <path fill="#323233" d="M6.094 15.652H4.469a.399.399 0 0 1-.407-.391c0-.216.182-.391.407-.391h1.625c.224 0 .406.175.406.39a.399.399 0 0 1-.406.392zM25.594 15.652h-1.625a.399.399 0 0 1-.407-.391c0-.216.182-.391.407-.391h1.625c.224 0 .406.175.406.39a.399.399 0 0 1-.406.392zM18.28 9.783a.401.401 0 0 1-.402-.343l-.406-3.13a.394.394 0 0 1 .353-.437.403.403 0 0 1 .453.34l.406 3.13a.394.394 0 0 1-.403.44z"/>
        <path fill="#323233" d="M23.563 9.783H18.28a.399.399 0 0 1-.406-.392c0-.216.182-.391.406-.391h5.282c.224 0 .406.175.406.391a.399.399 0 0 1-.407.392zM21.562 6.652h-3.687a.399.399 0 0 1-.406-.391c0-.216.181-.391.406-.391h3.687c.225 0 .406.175.406.39a.399.399 0 0 1-.406.392z"/>
        <path fill="#323233" d="M19.906 9.783a.401.401 0 0 1-.403-.343l-.406-3.131a.394.394 0 0 1 .353-.437.404.404 0 0 1 .453.34l.406 3.131a.394.394 0 0 1-.403.44zM18.688 11.348h-.407a.399.399 0 0 1-.406-.391c0-.217.182-.392.406-.392h.407c.224 0 .406.175.406.392a.399.399 0 0 1-.407.39zM6.5 5.087H.406A.399.399 0 0 1 0 4.696c0-.217.182-.392.406-.392H6.5c.225 0 .406.175.406.392a.399.399 0 0 1-.406.391zM3.99 9.783H2.03a.399.399 0 0 1-.406-.392c0-.216.182-.391.406-.391H3.99c.225 0 .407.175.407.391a.399.399 0 0 1-.407.392zM8.938 5.087h-.813a.399.399 0 0 1-.406-.391c0-.217.181-.392.406-.392h.813c.224 0 .406.175.406.392a.399.399 0 0 1-.406.391zM1.625 7.435H.812a.399.399 0 0 1-.406-.392c0-.216.182-.39.406-.39h.813c.225 0 .406.174.406.39a.399.399 0 0 1-.406.392zM7.313 7.435h-4.47a.399.399 0 0 1-.405-.392c0-.216.181-.39.406-.39h4.469c.224 0 .406.174.406.39a.399.399 0 0 1-.407.392zM5.688 2.74H2.03a.399.399 0 0 1-.406-.392c0-.216.182-.391.406-.391h3.656c.225 0 .407.175.407.39a.399.399 0 0 1-.407.392z"/>
    </g>
</svg>
